<svg viewBox="0 0 111 56" xmlns="http://www.w3.org/2000/svg">
  <g fill="none">
    <path fill="#2D3540" d="M54.406 34.313h1.737v3.893h1.255l2.252-3.893h1.899l-2.703 4.569v.032L61.71 43.9h-1.963l-2.317-4.183h-1.254v4.183h-1.738v-9.588h-.032zm11.197 2.542c2.09 0 3.796 1.512 3.796 3.603 0 2.124-1.673 3.604-3.764 3.604-2.092 0-3.765-1.48-3.765-3.604-.032-2.123 1.641-3.603 3.733-3.603zm5.147.16h1.641v5.406h2.156v-5.405h1.64v5.405h2.156v-5.405h1.641V43.9h-9.17v-6.885h-.064zm14.093-.16c1.962 0 3.056 1.448 3.056 3.25a4.8 4.8 0 0 1-.064.675h-4.73c.097 1.19 1.03 1.834 2.06 1.834.707 0 1.415-.322 1.962-.74l.676 1.223c-.708.61-1.77.997-2.767.997-2.285 0-3.7-1.641-3.7-3.604 0-2.155 1.447-3.635 3.507-3.635zm3.86 5.598c.837-.129 1.448-.836 1.448-3.282v-2.155h5.02V43.9h-1.706v-5.502h-1.673v.772c0 2.992-.804 4.73-3.089 4.794v-1.512zm11.358-5.598c1.962 0 3.056 1.448 3.056 3.25a4.8 4.8 0 0 1-.064.675h-4.73c.097 1.19 1.03 1.834 2.06 1.834.707 0 1.415-.322 1.962-.74l.676 1.223c-.708.61-1.77.997-2.767.997-2.284 0-3.7-1.641-3.7-3.604 0-2.155 1.448-3.635 3.507-3.635zm4.472.16h1.705v2.639h.837l1.673-2.638h1.898l-2.188 3.281v.033l2.445 3.57h-1.994l-1.802-2.798h-.9V43.9H104.5v-6.885h.032zm-38.93 5.567c1.126 0 2.059-.869 2.059-2.156 0-1.255-.933-2.156-2.06-2.156-1.125 0-2.026.87-2.026 2.156 0 1.287.9 2.156 2.027 2.156zm20.559-2.992c0-.901-.612-1.448-1.384-1.448-.868 0-1.512.579-1.673 1.448h3.057zm15.218 0c0-.901-.611-1.448-1.383-1.448-.87 0-1.513.579-1.674 1.448h3.057z"/><path fill="#FF8C00" d="M78.44 13.432V29.68a.44.44 0 0 1-.45.45h-3.314a.44.44 0 0 1-.45-.45V13.432a.44.44 0 0 1 .45-.45h3.314a.44.44 0 0 1 .45.45zm25.868-.45c.129 0 .29.064.45.193.097.096.097.257.065.386l-5.47 16.28a.458.458 0 0 1-.418.29h-2.96c-.193 0-.354-.097-.418-.29L92.37 20.35l-3.185 9.49a.458.458 0 0 1-.418.29h-2.96c-.193 0-.354-.096-.418-.29l-5.47-16.28c-.032-.128-.032-.257.064-.385.065-.129.226-.193.354-.193h3.7c.193 0 .354.128.419.321l2.927 9.62 3.218-9.62a.458.458 0 0 1 .418-.29h2.606c.193 0 .354.097.418.29l3.218 9.62 2.928-9.62a.444.444 0 0 1 .418-.321h3.7zm5.598 0c.225 0 .418.193.45.45V29.68a.44.44 0 0 1-.45.45h-3.314a.44.44 0 0 1-.45-.45V13.432a.44.44 0 0 1 .45-.45h3.314zm-37.611 16.57c.193.225.032.546-.258.546h-4.054a.519.519 0 0 1-.418-.193l-.675-.836c-1.416.9-3.09 1.448-4.859 1.448-4.954 0-8.976-4.022-8.976-8.977s4.022-8.977 8.976-8.977c4.955 0 8.977 4.022 8.977 8.977 0 1.77-.515 3.443-1.416 4.858l2.703 3.153zm-33.88 7.882c.837.322 1.159 1.576 1.223 2.123.129.998-.16 1.384-.482 1.384-.322 0-.773-.386-1.255-1.158-.483-.773-.676-1.641-.418-2.092.16-.29.514-.418.933-.257zm-4.89 3.636c.515 0 1.094.225 1.609.675.997.837 1.287 1.802.772 2.51-.29.354-.772.579-1.319.579-.547 0-1.126-.193-1.512-.547-.901-.772-1.158-2.06-.58-2.767.226-.29.58-.45 1.03-.45zm-11.26 9.298c-12.227 0-22.136-9.91-22.136-22.136 0-12.226 9.91-22.135 22.135-22.135 12.226 0 22.136 9.91 22.136 22.135 0 4.15-1.158 8.044-3.12 11.358-.065.096-.226.064-.258-.065-.772-5.437-4.086-8.43-8.912-9.33-.419-.065-.483-.322.064-.386 1.48-.129 3.571-.097 4.665.096.064-.547.097-1.126.097-1.705 0-8.076-6.564-14.64-14.64-14.64-8.075 0-14.639 6.564-14.639 14.64s6.564 14.64 14.64 14.64h.675a19.749 19.749 0 0 1-.29-3.958c.033-.901.226-1.03.612-.322 2.027 3.507 4.923 6.66 10.585 7.915 4.633 1.03 9.266 2.22 14.253 8.558.45.547-.225 1.126-.74.676-5.083-4.505-9.716-5.985-13.931-5.985-4.73.033-7.947.644-11.197.644zm41.986-24.42l-1.77-2.156c-.192-.225-.031-.579.258-.579h3.732c.193-.515.29-1.094.29-1.673 0-2.67-1.995-4.987-4.73-4.987-2.734 0-4.73 2.317-4.73 4.987s1.996 4.955 4.73 4.955c.772.032 1.545-.193 2.22-.547z"/>
  </g>
</svg>
